<svg width="89" height="100" viewBox="0 0 89 100" fill="none" xmlns="http://www.w3.org/2000/svg">
<g filter="url(#filter0_d_219_20)">
<path d="M4.39069 0.5L11.6684 82.3727L44.3453 91.5L77.1085 82.3409L84.3907 0.5H4.39069ZM69.2675 19.2597L66.8416 46.5323L66.8507 46.6825L66.8416 47.0192L65.1153 66.0837L64.929 67.7809L44.3907 73.4684L44.3725 73.4865L23.8751 67.7627L22.4849 51.9969H32.5338L33.247 60.014L44.3907 63.0398L55.5707 59.9731L56.7518 46.9191H33.3833L33.1834 44.7124L32.7246 39.5436L32.4884 36.7681H57.6468L58.5644 26.6124H20.2317L20.0318 24.4057L19.5775 19.2324L19.3367 16.4569H69.5082L69.2675 19.2597Z" fill="#FDFDFD"/>
</g>
<defs>
<filter id="filter0_d_219_20" x="0.390686" y="0.5" width="88" height="99" filterUnits="userSpaceOnUse" color-interpolation-filters="sRGB">
<feFlood flood-opacity="0" result="BackgroundImageFix"/>
<feColorMatrix in="SourceAlpha" type="matrix" values="0 0 0 0 0 0 0 0 0 0 0 0 0 0 0 0 0 0 127 0" result="hardAlpha"/>
<feOffset dy="4"/>
<feGaussianBlur stdDeviation="2"/>
<feComposite in2="hardAlpha" operator="out"/>
<feColorMatrix type="matrix" values="0 0 0 0 0 0 0 0 0 0 0 0 0 0 0 0 0 0 0.25 0"/>
<feBlend mode="normal" in2="BackgroundImageFix" result="effect1_dropShadow_219_20"/>
<feBlend mode="normal" in="SourceGraphic" in2="effect1_dropShadow_219_20" result="shape"/>
</filter>
</defs>
</svg>
