<svg width="42" height="41" viewBox="0 0 42 41" fill="none" xmlns="http://www.w3.org/2000/svg">
<path fill-rule="evenodd" clip-rule="evenodd" d="M21 0.714294C9.53692 0.714294 0.241577 9.79636 0.241577 21.0009C0.241577 29.9644 6.18948 37.5683 14.4374 40.2511C15.4745 40.4392 15.8554 39.811 15.8554 39.2752C15.8554 38.7915 15.8361 37.1934 15.8272 35.4983C10.0522 36.7254 8.83361 33.1047 8.83361 33.1047C7.88933 30.7599 6.52876 30.1364 6.52876 30.1364C4.64501 28.8773 6.67073 28.9035 6.67073 28.9035C8.75489 29.0463 9.85283 30.994 9.85283 30.994C11.7043 34.0947 14.709 33.1984 15.8935 32.6804C16.0799 31.3693 16.6178 30.474 17.2115 29.9674C12.6008 29.4551 7.75355 27.7153 7.75355 19.942C7.75355 17.7272 8.5648 15.9175 9.8927 14.4965C9.67683 13.9858 8.9663 11.9225 10.0935 9.12818C10.0935 9.12818 11.8363 8.58296 15.8031 11.2076C17.4593 10.7578 19.2355 10.5317 21 10.524C22.7634 10.5317 24.5406 10.7571 26.1999 11.207C30.1619 8.58229 31.9027 9.12751 31.9027 9.12751C33.0326 11.9215 32.322 13.9852 32.1065 14.4958C33.4375 15.9168 34.2429 17.7265 34.2429 19.9413C34.2429 27.7331 29.3868 29.4484 24.7644 29.9509C25.5093 30.5805 26.1727 31.8154 26.1727 33.7077C26.1727 36.4221 26.1486 38.6067 26.1486 39.2749C26.1486 39.8147 26.5226 40.4473 27.5745 40.2481C35.8176 37.5626 41.7587 29.961 41.7587 21.0009C41.7583 9.79703 32.464 0.71463 21 0.71463V0.714294Z" fill="white"/>
</svg>
