<svg width="92" height="92" viewBox="0 0 92 92" fill="none" xmlns="http://www.w3.org/2000/svg">
<path d="M81.75 0.5H10.25C4.86719 0.5 0.5 4.86719 0.5 10.25V81.75C0.5 87.1328 4.86719 91.5 10.25 91.5H81.75C87.1328 91.5 91.5 87.1328 91.5 81.75V10.25C91.5 4.86719 87.1328 0.5 81.75 0.5ZM50.0219 71.4719C50.0219 80.3281 44.8219 84.3703 37.2453 84.3703C30.4 84.3703 26.4391 80.8359 24.4078 76.55L31.375 72.3453C32.7156 74.7219 33.9344 76.7328 36.8797 76.7328C39.6828 76.7328 41.4703 75.6359 41.4703 71.35V42.2828H50.0219V71.4719ZM70.2531 84.3703C62.3109 84.3703 57.1719 80.5922 54.6734 75.6359L61.6406 71.6141C63.4688 74.6 65.8656 76.8141 70.0703 76.8141C73.6047 76.8141 75.8797 75.0469 75.8797 72.5891C75.8797 69.6641 73.5641 68.6281 69.6438 66.9016L67.5109 65.9875C61.3359 63.3672 57.2531 60.0562 57.2531 53.0891C57.2531 46.6703 62.1484 41.7953 69.7656 41.7953C75.2094 41.7953 79.1094 43.6844 81.9125 48.6406L75.25 52.9062C73.7875 50.2859 72.2031 49.25 69.7453 49.25C67.2469 49.25 65.6625 50.8344 65.6625 52.9062C65.6625 55.4656 67.2469 56.5016 70.9234 58.1063L73.0563 59.0203C80.3281 62.1281 84.4109 65.3172 84.4109 72.4672C84.4109 80.1453 78.3578 84.3703 70.2531 84.3703Z" fill="#FDFDFD"/>
</svg>
