<svg width="42" height="42" viewBox="0 0 42 42" fill="none" xmlns="http://www.w3.org/2000/svg">
<path d="M38.875 0.0312257H3.125C2.31386 0.0229706 1.53257 0.336835 0.952565 0.903948C0.372562 1.47106 0.0412226 2.2451 0.03125 3.05623V38.9506C0.0430261 39.7605 0.375159 40.5328 0.954965 41.0984C1.53477 41.6641 2.31503 41.977 3.125 41.9687H38.875C39.6862 41.9752 40.467 41.6602 41.0467 41.0928C41.6264 40.5253 41.9579 39.7514 41.9688 38.9403V3.04591C41.9543 2.23717 41.6212 1.46682 41.0419 0.902308C40.4626 0.337798 39.6838 0.0247558 38.875 0.0312257V0.0312257ZM12.4647 35.7812H6.23937V15.7509H12.4647V35.7812ZM9.37094 13.0215C8.65692 13.0222 7.95875 12.8111 7.36474 12.4149C6.77073 12.0187 6.30757 11.4553 6.03386 10.7958C5.76015 10.1363 5.68818 9.4105 5.82706 8.71012C5.96594 8.00974 6.30943 7.36629 6.81407 6.86117C7.31871 6.35604 7.96184 6.01194 8.66208 5.8724C9.36232 5.73285 10.0882 5.80412 10.748 6.07721C11.4077 6.35029 11.9716 6.81291 12.3683 7.40655C12.7651 8.00018 12.9769 8.69815 12.9769 9.41216C12.976 9.88673 12.8815 10.3565 12.6988 10.7945C12.5162 11.2325 12.249 11.6302 11.9124 11.9648C11.5759 12.2994 11.1767 12.5644 10.7376 12.7445C10.2986 12.9247 9.82832 13.0165 9.35375 13.0147L9.37094 13.0215ZM35.7812 35.7812H29.5559V26.0359C29.5559 23.7156 29.5147 20.7284 26.3213 20.7284C23.1278 20.7284 22.5847 23.2584 22.5847 25.8847V35.7812H16.3697V15.7509H22.3372V18.5009H22.4197C23.2516 16.9265 25.2797 15.2662 28.3081 15.2662C34.6125 15.2525 35.7812 19.4015 35.7812 24.7812V35.7812Z" fill="white"/>
</svg>
