<svg width="93" height="91" viewBox="0 0 93 91" fill="none" xmlns="http://www.w3.org/2000/svg">
<path d="M0.704 63.144C0.704 64.7227 1.6 65.512 3.392 65.512C5.184 65.512 7.46667 64.7867 10.24 63.336C13.056 61.8853 15.872 59.8587 18.688 57.256C21.5467 54.6107 24.3413 51.9013 27.072 49.128C17.9413 52.2427 11.264 54.824 7.04 56.872C2.816 58.8773 0.704 60.968 0.704 63.144ZM89.152 14.504C85.4827 14.504 80.4267 16.8507 73.984 21.544C67.584 26.1947 61.4827 31.7413 55.68 38.184C65.1093 34.472 73.2587 30.3973 80.128 25.96C87.04 21.48 90.496 18.0027 90.496 15.528C90.496 14.8453 90.048 14.504 89.152 14.504ZM49.408 67.496H50.048C52.5653 67.496 54.976 66.8987 57.28 65.704C59.584 64.5093 61.4613 63.0373 62.912 61.288C64.4053 59.5387 65.5787 57.7467 66.432 55.912C67.2853 54.0773 67.712 52.456 67.712 51.048C67.712 48.9147 66.7093 47.848 64.704 47.848C61.7173 47.848 58.4107 49.8107 54.784 53.736C51.2 57.6187 49.408 62.0773 49.408 67.112V67.496ZM17.792 28.072H19.392C23.1893 28.072 26.816 27.624 30.272 26.728C33.7707 25.7893 36.672 24.6373 38.976 23.272C41.28 21.864 43.0933 20.3707 44.416 18.792C45.7813 17.2133 46.464 15.784 46.464 14.504C46.464 13.224 45.8453 12.2213 44.608 11.496C43.3707 10.728 41.5147 10.344 39.04 10.344C34.0053 10.344 29.3547 12.264 25.088 16.104C20.864 19.944 18.432 23.9333 17.792 28.072ZM28.096 0.615997L28.288 1.384C21.6747 2.28 16.192 4.56266 11.84 8.232C7.53067 11.9013 5.376 15.6133 5.376 19.368C5.376 21.544 6.22933 23.4 7.936 24.936C9.64267 26.472 12.2027 27.4533 15.616 27.88C15.7867 25.7893 16.4907 23.656 17.728 21.48C19.008 19.304 20.6507 17.2987 22.656 15.464C24.704 13.6293 27.2213 12.136 30.208 10.984C33.1947 9.78933 36.16 9.192 39.104 9.192C42.0907 9.192 44.2453 9.64 45.568 10.536C46.9333 11.432 47.616 12.6267 47.616 14.12C47.616 15.5707 46.9333 17.1493 45.568 18.856C44.2027 20.5627 42.3253 22.1627 39.936 23.656C37.5893 25.1493 34.56 26.408 30.848 27.432C27.136 28.4133 23.1893 28.904 19.008 28.904H17.664V29.672C17.664 31.8907 18.4533 33.6827 20.032 35.048C21.6107 36.3707 23.8507 37.032 26.752 37.032C29.696 37.032 32.9387 36.328 36.48 34.92C40.0213 33.4693 43.6907 31.2507 47.488 28.264C53.7173 22.4613 59.2213 18.4507 64 16.232C65.792 15.4213 66.9867 14.9947 67.584 14.952L67.712 15.4C64.0427 17.0213 60.736 19.0267 57.792 21.416C54.848 23.8907 51.072 27.5173 46.464 32.296L34.624 45.224L33.6 46.248C37.8667 44.7547 43.392 42.7707 50.176 40.296C55.8933 33.128 62.464 26.8987 69.888 21.608C77.3547 16.3173 83.8187 13.672 89.28 13.672C90.7307 13.672 91.456 14.184 91.456 15.208C91.456 18.0667 87.808 21.8427 80.512 26.536C73.2587 31.2293 64.64 35.496 54.656 39.336C50.8587 43.7307 47.808 47.8907 45.504 51.816C43.2427 55.7413 42.112 59.0053 42.112 61.608C42.112 65.192 44.3093 67.1333 48.704 67.432V66.6C48.704 63.7413 49.2587 61.0533 50.368 58.536C51.52 55.976 52.928 53.8853 54.592 52.264C56.2987 50.6 58.0907 49.2987 59.968 48.36C61.8453 47.3787 63.552 46.888 65.088 46.888C66.6667 46.888 67.8827 47.3147 68.736 48.168C69.632 48.9787 70.08 50.1733 70.08 51.752C70.08 53.3307 69.5467 55.08 68.48 57C67.456 58.8773 66.0693 60.648 64.32 62.312C62.5707 63.976 60.3947 65.3627 57.792 66.472C55.232 67.624 52.5653 68.2 49.792 68.2H49.408C49.6213 71.2293 50.7093 73.6827 52.672 75.56C54.6773 77.48 57.5787 78.44 61.376 78.44C62.7413 78.44 64.192 78.184 65.728 77.672L66.24 77.992C64.9173 78.7173 62.9973 79.08 60.48 79.08C56.8533 79.08 54.0587 78.056 52.096 76.008C50.1333 74.0027 49.024 71.3787 48.768 68.136C43.008 67.88 40.128 65.4267 40.128 60.776C40.128 55.784 43.2 49.2987 49.344 41.32C42.4747 43.7947 36.8853 45.7787 32.576 47.272L25.344 54.696C23.9787 56.4453 20.8213 58.8133 15.872 61.8C10.9653 64.7867 6.74133 66.28 3.2 66.28C1.06667 66.28 0 65.4267 0 63.72C0 62.2693 0.490667 60.9467 1.472 59.752C2.45333 58.5573 4.26667 57.3413 6.912 56.104C9.55733 54.824 11.84 53.8427 13.76 53.16C15.68 52.4347 18.2613 51.5173 21.504 50.408C24.7893 49.2987 26.9653 48.552 28.032 48.168C30.8907 45.3093 34.688 41.3627 39.424 36.328L41.152 34.408C41.8773 33.5973 42.8587 32.616 44.096 31.464C37.6533 35.6453 31.936 37.736 26.944 37.736C23.1467 37.736 20.288 36.9253 18.368 35.304C16.4907 33.64 15.552 31.4853 15.552 28.84V28.712C11.8827 28.328 9.10933 27.3253 7.232 25.704C5.35467 24.04 4.416 22.0347 4.416 19.688C4.416 15.8053 6.61333 11.944 11.008 8.104C15.4453 4.264 21.1413 1.768 28.096 0.615997ZM72.049 64.872C73.5423 64.872 75.569 64.1253 78.129 62.632C80.7317 61.096 82.9717 59.56 84.849 58.024C86.7263 56.4453 87.665 55.528 87.665 55.272C87.665 54.9733 87.345 54.7387 86.705 54.568C86.1077 54.3973 85.5103 54.312 84.913 54.312C83.1637 54.312 81.1797 54.9947 78.961 56.36C76.785 57.7253 74.9717 59.1973 73.521 60.776C72.113 62.3547 71.409 63.528 71.409 64.296C71.409 64.68 71.6223 64.872 72.049 64.872ZM52.785 82.728C51.633 83.624 50.801 84.4773 50.289 85.288C49.777 86.1413 49.521 87.0373 49.521 87.976C49.521 88.9147 49.9903 89.384 50.929 89.384C53.233 89.384 59.9957 83.6667 71.217 72.232C63.665 75.8587 58.993 78.2907 57.201 79.528C55.3663 80.7653 53.8943 81.832 52.785 82.728ZM88.881 54.376C89.5637 53.6933 90.0117 53.352 90.225 53.352C90.481 53.352 90.8437 53.416 91.313 53.544C91.825 53.672 92.081 53.8213 92.081 53.992C92.081 54.12 91.9103 54.3333 91.569 54.632C91.2277 54.9307 86.769 59.368 78.193 67.944C83.825 65.128 88.561 62.44 92.401 59.88L92.529 60.84C90.609 61.9493 89.2437 62.7813 88.433 63.336C86.129 64.744 82.1183 66.8773 76.401 69.736C70.2143 75.9653 64.9023 80.936 60.465 84.648C55.985 88.4027 52.657 90.28 50.481 90.28C49.2437 90.28 48.625 89.576 48.625 88.168C48.625 86.76 49.265 85.3093 50.545 83.816C51.825 82.3653 53.7237 80.872 56.241 79.336C60.209 76.9467 65.521 74.1307 72.177 70.888C72.4757 70.76 72.7103 70.6533 72.881 70.568C73.6063 69.8427 74.7583 68.6267 76.337 66.92C77.9583 65.2133 79.025 64.104 79.537 63.592C80.049 63.08 80.433 62.696 80.689 62.44C81.2437 61.8427 81.7343 61.352 82.161 60.968C77.425 64.2107 73.7983 65.8533 71.281 65.896C70.2997 65.896 69.809 65.32 69.809 64.168C69.809 61.992 71.1957 59.6667 73.969 57.192C76.785 54.6747 80.4117 53.416 84.849 53.416C86.3423 53.416 87.6863 53.736 88.881 54.376Z" fill="white"/>
</svg>
