<svg width="31" height="22" viewBox="0 0 31 22" fill="none" xmlns="http://www.w3.org/2000/svg">
<path d="M29.1041 9.33914C29.4661 9.79469 29.6666 10.3865 29.6666 11.0002C29.6666 11.6138 29.4661 12.2057 29.1041 12.6612C26.8113 15.4627 21.5923 20.9168 15.4999 20.9168C9.40757 20.9168 4.18867 15.4627 1.89584 12.6612C1.53371 12.2057 1.33325 11.6138 1.33325 11.0002C1.33325 10.3865 1.53371 9.79469 1.89584 9.33914C4.18867 6.53767 9.40757 1.0835 15.4999 1.0835C21.5923 1.0835 26.8113 6.53767 29.1041 9.33914Z" stroke="#98989A" stroke-width="1.5" stroke-linecap="round" stroke-linejoin="round"/>
<path d="M15.5006 15.4073C17.9126 15.4073 19.8679 13.4341 19.8679 11C19.8679 8.56586 17.9126 6.59262 15.5006 6.59262C13.0887 6.59262 11.1334 8.56586 11.1334 11C11.1334 13.4341 13.0887 15.4073 15.5006 15.4073Z" stroke="#98989A" stroke-width="1.5" stroke-linecap="round" stroke-linejoin="round"/>
</svg>
